<svg width="256" height="256" viewBox="0 0 256 256" fill="none" xmlns="http://www.w3.org/2000/svg">
    <circle cx="128" cy="128" r="128" fill="white"/>
    <path fill-rule="evenodd" clip-rule="evenodd" d="M92.5331 106.953L82.0148 137.105H109.817C112.488 137.105 114.528 139.201 114.719 141.663C114.854 143.404 115.385 147.043 117.267 150.141C119.004 152.999 121.927 155.523 127.561 155.523C133.196 155.523 136.119 152.999 137.855 150.141C139.738 147.043 140.269 143.404 140.404 141.663C140.595 139.201 142.635 137.105 145.306 137.105H173.867L162.648 106.953H92.5331ZM80.4726 174.818V144.666H107.472C107.884 147.206 108.791 150.752 110.806 154.068C113.743 158.901 118.973 163.084 127.561 163.084C136.15 163.084 141.38 158.901 144.317 154.068C146.332 150.752 147.238 147.206 147.651 144.666H175.527V174.818H80.4726ZM85.5202 104.1C86.5037 101.28 89.1632 99.3913 92.1495 99.3913H163.023C165.957 99.3913 168.581 101.215 169.604 103.964L183.089 140.205V175.359C183.089 179.236 179.945 182.38 176.067 182.38H79.9325C76.0548 182.38 72.9114 179.236 72.9114 175.359V140.245L85.5202 104.1ZM115.456 121.434C117.48 121.434 119.121 119.793 119.121 117.769C119.121 115.745 117.48 114.104 115.456 114.104C113.432 114.104 111.791 115.745 111.791 117.769C111.791 119.793 113.432 121.434 115.456 121.434ZM140.544 121.434C142.568 121.434 144.209 119.793 144.209 117.769C144.209 115.745 142.568 114.104 140.544 114.104C138.52 114.104 136.879 115.745 136.879 117.769C136.879 119.793 138.52 121.434 140.544 121.434ZM135.907 125.879C136.903 126.535 137.179 127.874 136.523 128.871C136.468 128.955 136.379 129.077 136.342 129.126C136.243 129.26 136.103 129.438 135.924 129.646C135.567 130.06 135.043 130.604 134.352 131.148C132.972 132.236 130.852 133.38 128.071 133.38C125.295 133.38 123.148 132.241 121.744 131.168C121.039 130.63 120.291 129.859 120.13 129.683C119.825 129.348 119.711 129.209 119.51 128.92C118.827 127.942 119.066 126.595 120.044 125.912C121.019 125.232 122.358 125.466 123.044 126.435C123.11 126.527 123.298 126.744 123.339 126.789C123.568 127.043 123.915 127.389 124.367 127.735C125.278 128.43 126.525 129.059 128.071 129.059C129.609 129.059 130.814 128.435 131.678 127.754C132.109 127.415 132.437 127.075 132.651 126.825C132.757 126.703 132.874 126.556 132.923 126.482C133.582 125.496 134.914 125.226 135.907 125.879Z" fill="#99C4DD"/>
    <path fill-rule="evenodd" clip-rule="evenodd" d="M125.807 59.131C125.807 57.7816 126.901 56.6877 128.251 56.6877C129.6 56.6877 130.694 57.7816 130.694 59.131V77.0481C130.694 78.3974 129.6 79.4913 128.251 79.4913C126.901 79.4913 125.807 78.3974 125.807 77.0481V59.131ZM157.904 62.9306C158.788 61.9114 160.331 61.8022 161.351 62.6866C162.37 63.571 162.479 65.1141 161.595 66.1332L149.851 79.6654C148.967 80.6845 147.424 80.7938 146.405 79.9094C145.386 79.025 145.276 77.4819 146.161 76.4627L157.904 62.9306ZM95.8969 62.6866C96.916 61.8022 98.4591 61.9114 99.3435 62.9306L111.087 76.4627C111.971 77.4819 111.862 79.025 110.843 79.9094C109.824 80.7938 108.28 80.6845 107.396 79.6654L95.6529 66.1332C94.7685 65.1141 94.8777 63.571 95.8969 62.6866Z" fill="#FFD799"/>
</svg>
